<?xml version="1.0" encoding="UTF-8" standalone="no"?><svg xmlns="http://www.w3.org/2000/svg" xmlns:xlink="http://www.w3.org/1999/xlink" contentScriptType="application/ecmascript" contentStyleType="text/css" height="620px" preserveAspectRatio="none" style="width:2200px;height:620px;background:#FFFFFF;" version="1.1" viewBox="0 0 2200 620" width="2200px" zoomAndPan="magnify"><defs><filter height="300%" id="f1dl5vqxc9f4fk" width="300%" x="-1" y="-1"><feGaussianBlur result="blurOut" stdDeviation="2.0"/><feColorMatrix in="blurOut" result="blurOut2" type="matrix" values="0 0 0 0 0 0 0 0 0 0 0 0 0 0 0 0 0 0 .4 0"/><feOffset dx="4.0" dy="4.0" in="blurOut2" result="blurOut3"/><feBlend in="SourceGraphic" in2="blurOut3" mode="normal"/></filter></defs><g><!--MD5=[8ceea019643f6234eb755844f9fd1c81]
cluster //<<Subsystem>>//\n=**EmbededSystem**--><rect fill="#FFFFFF" filter="url(#f1dl5vqxc9f4fk)" height="352" style="stroke:#000000;stroke-width:1.5;" width="1854" x="7" y="7"/><rect fill="#FFFFFF" height="10" style="stroke:#000000;stroke-width:1.5;" width="15" x="1841" y="12"/><rect fill="#FFFFFF" height="2" style="stroke:#000000;stroke-width:1.5;" width="4" x="1839" y="14"/><rect fill="#FFFFFF" height="2" style="stroke:#000000;stroke-width:1.5;" width="4" x="1839" y="18"/><text fill="#000000" font-family="sans-serif" font-size="14" font-style="italic" font-weight="bold" lengthAdjust="spacing" textLength="135" x="866.5" y="32.9951">&lt;&lt;Subsystem&gt;&gt;</text><text fill="#000000" font-family="sans-serif" font-size="22" font-weight="bold" lengthAdjust="spacing" textLength="212" x="828" y="56.7178">EmbededSystem</text><!--MD5=[3b053d3dbb3b3dda9ccbaadf86e48c22]
cluster Power--><rect fill="#FFFFFF" filter="url(#f1dl5vqxc9f4fk)" height="113" style="stroke:#000000;stroke-width:1.5;" width="313" x="1516" y="83"/><rect fill="#FFFFFF" height="10" style="stroke:#000000;stroke-width:1.5;" width="15" x="1809" y="88"/><rect fill="#FFFFFF" height="2" style="stroke:#000000;stroke-width:1.5;" width="4" x="1807" y="90"/><rect fill="#FFFFFF" height="2" style="stroke:#000000;stroke-width:1.5;" width="4" x="1807" y="94"/><text fill="#000000" font-family="sans-serif" font-size="14" font-weight="bold" lengthAdjust="spacing" textLength="49" x="1648" y="108.9951">Power</text><!--MD5=[643947582102f694b546e8d11fa2fdbe]
cluster Movement--><rect fill="#FFFFFF" filter="url(#f1dl5vqxc9f4fk)" height="113" style="stroke:#000000;stroke-width:1.5;" width="324" x="1152" y="83"/><rect fill="#FFFFFF" height="10" style="stroke:#000000;stroke-width:1.5;" width="15" x="1456" y="88"/><rect fill="#FFFFFF" height="2" style="stroke:#000000;stroke-width:1.5;" width="4" x="1454" y="90"/><rect fill="#FFFFFF" height="2" style="stroke:#000000;stroke-width:1.5;" width="4" x="1454" y="94"/><text fill="#000000" font-family="sans-serif" font-size="14" font-weight="bold" lengthAdjust="spacing" textLength="84" x="1272" y="108.9951">Movement</text><!--MD5=[1f9322eb61f9a4af09b9c3e4dbefb0a0]
cluster Navigation--><rect fill="#FFFFFF" filter="url(#f1dl5vqxc9f4fk)" height="113" style="stroke:#000000;stroke-width:1.5;" width="314" x="798" y="83"/><rect fill="#FFFFFF" height="10" style="stroke:#000000;stroke-width:1.5;" width="15" x="1092" y="88"/><rect fill="#FFFFFF" height="2" style="stroke:#000000;stroke-width:1.5;" width="4" x="1090" y="90"/><rect fill="#FFFFFF" height="2" style="stroke:#000000;stroke-width:1.5;" width="4" x="1090" y="94"/><text fill="#000000" font-family="sans-serif" font-size="14" font-weight="bold" lengthAdjust="spacing" textLength="88" x="911" y="108.9951">Navigation</text><!--MD5=[3a5f0476b1972698bf0b9b5461cf175f]
cluster Temperature--><rect fill="#FFFFFF" filter="url(#f1dl5vqxc9f4fk)" height="113" style="stroke:#000000;stroke-width:1.5;" width="251" x="39" y="83"/><rect fill="#FFFFFF" height="10" style="stroke:#000000;stroke-width:1.5;" width="15" x="270" y="88"/><rect fill="#FFFFFF" height="2" style="stroke:#000000;stroke-width:1.5;" width="4" x="268" y="90"/><rect fill="#FFFFFF" height="2" style="stroke:#000000;stroke-width:1.5;" width="4" x="268" y="94"/><text fill="#000000" font-family="sans-serif" font-size="14" font-weight="bold" lengthAdjust="spacing" textLength="105" x="112" y="108.9951">Temperature</text><!--MD5=[3d0a18f93040077e2901b8f8f68fc80d]
cluster TelecomandInterface--><rect fill="#FFFFFF" filter="url(#f1dl5vqxc9f4fk)" height="244" style="stroke:#000000;stroke-width:1.5;" width="428" x="330" y="83"/><rect fill="#FFFFFF" height="10" style="stroke:#000000;stroke-width:1.5;" width="15" x="738" y="88"/><rect fill="#FFFFFF" height="2" style="stroke:#000000;stroke-width:1.5;" width="4" x="736" y="90"/><rect fill="#FFFFFF" height="2" style="stroke:#000000;stroke-width:1.5;" width="4" x="736" y="94"/><text fill="#000000" font-family="sans-serif" font-size="14" font-weight="bold" lengthAdjust="spacing" textLength="172" x="458" y="108.9951">TelecomandInterface</text><!--MD5=[a764b50498b9bc2aa79f2dc00b16a728]
cluster //<<Subsystem>>//\n=**EarthPc**--><rect fill="#FFFFFF" filter="url(#f1dl5vqxc9f4fk)" height="122" style="stroke:#000000;stroke-width:1.5;" width="151" x="1409" y="484"/><rect fill="#FFFFFF" height="10" style="stroke:#000000;stroke-width:1.5;" width="15" x="1540" y="489"/><rect fill="#FFFFFF" height="2" style="stroke:#000000;stroke-width:1.5;" width="4" x="1538" y="491"/><rect fill="#FFFFFF" height="2" style="stroke:#000000;stroke-width:1.5;" width="4" x="1538" y="495"/><text fill="#000000" font-family="sans-serif" font-size="14" font-style="italic" font-weight="bold" lengthAdjust="spacing" textLength="135" x="1417" y="509.9951">&lt;&lt;Subsystem&gt;&gt;</text><text fill="#000000" font-family="sans-serif" font-size="22" font-weight="bold" lengthAdjust="spacing" textLength="99" x="1435" y="533.7178">EarthPc</text><!--MD5=[7dfb99526ea69d9fadddfbd118e9a2ec]
entity Telemetry--><ellipse cx="68" cy="280" fill="#FEFECE" filter="url(#f1dl5vqxc9f4fk)" rx="8" ry="8" style="stroke:#A80036;stroke-width:1.5;"/><text fill="#000000" font-family="sans-serif" font-size="14" lengthAdjust="spacing" textLength="75" x="30.5" y="309.9951">Telemetry</text><!--MD5=[0b551e617b4aff351f08e048889c7eeb]
entity Telemetry1--><ellipse cx="1386" cy="280" fill="#FEFECE" filter="url(#f1dl5vqxc9f4fk)" rx="8" ry="8" style="stroke:#A80036;stroke-width:1.5;"/><text fill="#000000" font-family="sans-serif" font-size="14" lengthAdjust="spacing" textLength="75" x="1348.5" y="309.9951">Telemetry</text><!--MD5=[1870831045c4d88e3469e14975e75614]
entity Telemetry2--><ellipse cx="1160" cy="280" fill="#FEFECE" filter="url(#f1dl5vqxc9f4fk)" rx="8" ry="8" style="stroke:#A80036;stroke-width:1.5;"/><text fill="#000000" font-family="sans-serif" font-size="14" lengthAdjust="spacing" textLength="75" x="1122.5" y="309.9951">Telemetry</text><!--MD5=[ad462ea19c90ccd28925f2ffedf73c74]
entity Telemetry3--><ellipse cx="827" cy="280" fill="#FEFECE" filter="url(#f1dl5vqxc9f4fk)" rx="8" ry="8" style="stroke:#A80036;stroke-width:1.5;"/><text fill="#000000" font-family="sans-serif" font-size="14" lengthAdjust="spacing" textLength="75" x="789.5" y="309.9951">Telemetry</text><!--MD5=[1a2b7ca0cf73aca5a2dcecbd567e0db3]
entity Battery--><rect fill="#FEFECE" filter="url(#f1dl5vqxc9f4fk)" height="46.2969" style="stroke:#A80036;stroke-width:1.5;" width="95" x="1709.5" y="126"/><rect fill="#FEFECE" height="10" style="stroke:#A80036;stroke-width:1.5;" width="15" x="1784.5" y="131"/><rect fill="#FEFECE" height="2" style="stroke:#A80036;stroke-width:1.5;" width="4" x="1782.5" y="133"/><rect fill="#FEFECE" height="2" style="stroke:#A80036;stroke-width:1.5;" width="4" x="1782.5" y="137"/><text fill="#000000" font-family="sans-serif" font-size="14" lengthAdjust="spacing" textLength="55" x="1724.5" y="158.9951">Battery</text><!--MD5=[f88b8314e5441ccac592ff586a5a02a5]
entity SolarPanel--><rect fill="#FEFECE" filter="url(#f1dl5vqxc9f4fk)" height="46.2969" style="stroke:#A80036;stroke-width:1.5;" width="115" x="1559.5" y="126"/><rect fill="#FEFECE" height="10" style="stroke:#A80036;stroke-width:1.5;" width="15" x="1654.5" y="131"/><rect fill="#FEFECE" height="2" style="stroke:#A80036;stroke-width:1.5;" width="4" x="1652.5" y="133"/><rect fill="#FEFECE" height="2" style="stroke:#A80036;stroke-width:1.5;" width="4" x="1652.5" y="137"/><text fill="#000000" font-family="sans-serif" font-size="14" lengthAdjust="spacing" textLength="75" x="1574.5" y="158.9951">SolarPanel</text><!--MD5=[d48702ef57a2700028c840e833d3d1fd]
entity Legs--><rect fill="#FEFECE" filter="url(#f1dl5vqxc9f4fk)" height="46.2969" style="stroke:#A80036;stroke-width:1.5;" width="73" x="1378.5" y="126"/><rect fill="#FEFECE" height="10" style="stroke:#A80036;stroke-width:1.5;" width="15" x="1431.5" y="131"/><rect fill="#FEFECE" height="2" style="stroke:#A80036;stroke-width:1.5;" width="4" x="1429.5" y="133"/><rect fill="#FEFECE" height="2" style="stroke:#A80036;stroke-width:1.5;" width="4" x="1429.5" y="137"/><text fill="#000000" font-family="sans-serif" font-size="14" lengthAdjust="spacing" textLength="33" x="1393.5" y="158.9951">Legs</text><!--MD5=[c38596462e899427b55d08f1caf63ff3]
entity Accelerometer--><rect fill="#FEFECE" filter="url(#f1dl5vqxc9f4fk)" height="46.2969" style="stroke:#A80036;stroke-width:1.5;" width="148" x="1195" y="126"/><rect fill="#FEFECE" height="10" style="stroke:#A80036;stroke-width:1.5;" width="15" x="1323" y="131"/><rect fill="#FEFECE" height="2" style="stroke:#A80036;stroke-width:1.5;" width="4" x="1321" y="133"/><rect fill="#FEFECE" height="2" style="stroke:#A80036;stroke-width:1.5;" width="4" x="1321" y="137"/><text fill="#000000" font-family="sans-serif" font-size="14" lengthAdjust="spacing" textLength="108" x="1210" y="158.9951">Accelerometer</text><!--MD5=[04dd22e5dc5c708da4a6715a2a0a0da3]
entity Mapping--><rect fill="#FEFECE" filter="url(#f1dl5vqxc9f4fk)" height="46.2969" style="stroke:#A80036;stroke-width:1.5;" width="102" x="986" y="126"/><rect fill="#FEFECE" height="10" style="stroke:#A80036;stroke-width:1.5;" width="15" x="1068" y="131"/><rect fill="#FEFECE" height="2" style="stroke:#A80036;stroke-width:1.5;" width="4" x="1066" y="133"/><rect fill="#FEFECE" height="2" style="stroke:#A80036;stroke-width:1.5;" width="4" x="1066" y="137"/><text fill="#000000" font-family="sans-serif" font-size="14" lengthAdjust="spacing" textLength="62" x="1001" y="158.9951">Mapping</text><!--MD5=[c098faba49fbc9e890fdc9871fac4171]
entity Locations--><rect fill="#FEFECE" filter="url(#f1dl5vqxc9f4fk)" height="46.2969" style="stroke:#A80036;stroke-width:1.5;" width="109" x="841.5" y="126"/><rect fill="#FEFECE" height="10" style="stroke:#A80036;stroke-width:1.5;" width="15" x="930.5" y="131"/><rect fill="#FEFECE" height="2" style="stroke:#A80036;stroke-width:1.5;" width="4" x="928.5" y="133"/><rect fill="#FEFECE" height="2" style="stroke:#A80036;stroke-width:1.5;" width="4" x="928.5" y="137"/><text fill="#000000" font-family="sans-serif" font-size="14" lengthAdjust="spacing" textLength="69" x="856.5" y="158.9951">Locations</text><!--MD5=[243a81b56e6bab1a8e9de4a2476155aa]
entity TemperatureSensor--><rect fill="#FEFECE" filter="url(#f1dl5vqxc9f4fk)" height="46.2969" style="stroke:#A80036;stroke-width:1.5;" width="184" x="82" y="126"/><rect fill="#FEFECE" height="10" style="stroke:#A80036;stroke-width:1.5;" width="15" x="246" y="131"/><rect fill="#FEFECE" height="2" style="stroke:#A80036;stroke-width:1.5;" width="4" x="244" y="133"/><rect fill="#FEFECE" height="2" style="stroke:#A80036;stroke-width:1.5;" width="4" x="244" y="137"/><text fill="#000000" font-family="sans-serif" font-size="14" lengthAdjust="spacing" textLength="144" x="97" y="158.9951">TemperatureSensor</text><!--MD5=[9952e9264c94cf99fa07950320bd3f3a]
entity MoveInterface--><rect fill="#FEFECE" filter="url(#f1dl5vqxc9f4fk)" height="46.2969" style="stroke:#A80036;stroke-width:1.5;" width="144" x="354" y="126"/><rect fill="#FEFECE" height="10" style="stroke:#A80036;stroke-width:1.5;" width="15" x="478" y="131"/><rect fill="#FEFECE" height="2" style="stroke:#A80036;stroke-width:1.5;" width="4" x="476" y="133"/><rect fill="#FEFECE" height="2" style="stroke:#A80036;stroke-width:1.5;" width="4" x="476" y="137"/><text fill="#000000" font-family="sans-serif" font-size="14" lengthAdjust="spacing" textLength="104" x="369" y="158.9951">MoveInterface</text><!--MD5=[655171fc09169bb18a09e5131cfddb41]
entity TelemetryInterface--><rect fill="#FEFECE" filter="url(#f1dl5vqxc9f4fk)" height="46.2969" style="stroke:#A80036;stroke-width:1.5;" width="181" x="533.5" y="126"/><rect fill="#FEFECE" height="10" style="stroke:#A80036;stroke-width:1.5;" width="15" x="694.5" y="131"/><rect fill="#FEFECE" height="2" style="stroke:#A80036;stroke-width:1.5;" width="4" x="692.5" y="133"/><rect fill="#FEFECE" height="2" style="stroke:#A80036;stroke-width:1.5;" width="4" x="692.5" y="137"/><text fill="#000000" font-family="sans-serif" font-size="14" lengthAdjust="spacing" textLength="141" x="548.5" y="158.9951">TelemetryInterface</text><!--MD5=[a51923451f409e1a1ba92839eeb74df4]
entity PayloadInterface--><rect fill="#FEFECE" filter="url(#f1dl5vqxc9f4fk)" height="46.2969" style="stroke:#A80036;stroke-width:1.5;" width="161" x="354.5" y="257"/><rect fill="#FEFECE" height="10" style="stroke:#A80036;stroke-width:1.5;" width="15" x="495.5" y="262"/><rect fill="#FEFECE" height="2" style="stroke:#A80036;stroke-width:1.5;" width="4" x="493.5" y="264"/><rect fill="#FEFECE" height="2" style="stroke:#A80036;stroke-width:1.5;" width="4" x="493.5" y="268"/><text fill="#000000" font-family="sans-serif" font-size="14" lengthAdjust="spacing" textLength="121" x="369.5" y="289.9951">PayloadInterface</text><!--MD5=[01662713e0c01d293b5fbfc799a74846]
entity Interface--><rect fill="#FEFECE" filter="url(#f1dl5vqxc9f4fk)" height="46.2969" style="stroke:#A80036;stroke-width:1.5;" width="106" x="1431" y="544"/><rect fill="#FEFECE" height="10" style="stroke:#A80036;stroke-width:1.5;" width="15" x="1517" y="549"/><rect fill="#FEFECE" height="2" style="stroke:#A80036;stroke-width:1.5;" width="4" x="1515" y="551"/><rect fill="#FEFECE" height="2" style="stroke:#A80036;stroke-width:1.5;" width="4" x="1515" y="555"/><text fill="#000000" font-family="sans-serif" font-size="14" lengthAdjust="spacing" textLength="66" x="1446" y="576.9951">Interface</text><!--MD5=[2d9fe0f8dcd006c7545a0483b1f9b9c0]
entity Lander--><rect fill="#FFFFFF" filter="url(#f1dl5vqxc9f4fk)" height="71.9063" style="stroke:#A80036;stroke-width:1.5;" width="135" x="1877.5" y="113"/><rect fill="#FFFFFF" height="10" style="stroke:#A80036;stroke-width:1.5;" width="15" x="1992.5" y="118"/><rect fill="#FFFFFF" height="2" style="stroke:#A80036;stroke-width:1.5;" width="4" x="1990.5" y="120"/><rect fill="#FFFFFF" height="2" style="stroke:#A80036;stroke-width:1.5;" width="4" x="1990.5" y="124"/><text fill="#000000" font-family="sans-serif" font-size="14" font-style="italic" lengthAdjust="spacing" textLength="95" x="1892.5" y="145.9951">«Subsystem»</text><text fill="#000000" font-family="sans-serif" font-size="22" font-weight="bold" lengthAdjust="spacing" textLength="88" x="1892.5" y="169.7178">Lander</text><!--MD5=[6a076269bdbf2d6c98f8fe2020b50285]
entity Payload--><rect fill="#FFFFFF" filter="url(#f1dl5vqxc9f4fk)" height="71.9063" style="stroke:#A80036;stroke-width:1.5;" width="139" x="2047.5" y="113"/><rect fill="#FFFFFF" height="10" style="stroke:#A80036;stroke-width:1.5;" width="15" x="2166.5" y="118"/><rect fill="#FFFFFF" height="2" style="stroke:#A80036;stroke-width:1.5;" width="4" x="2164.5" y="120"/><rect fill="#FFFFFF" height="2" style="stroke:#A80036;stroke-width:1.5;" width="4" x="2164.5" y="124"/><text fill="#000000" font-family="sans-serif" font-size="14" font-style="italic" lengthAdjust="spacing" textLength="95" x="2062.5" y="145.9951">«Subsystem»</text><text fill="#000000" font-family="sans-serif" font-size="22" font-weight="bold" lengthAdjust="spacing" textLength="99" x="2062.5" y="169.7178">Payload</text><!--MD5=[fe0bd2d4b5a40a6d59d67b72947b69e5]
link TelecomandInterface to Interface--><path d="M758.1237,172.1302 C758.169,172.2295 758.2145,172.3289 758.2602,172.4285 C758.4431,172.8268 758.6291,173.2274 758.8184,173.6303 C759.1969,174.4359 759.5884,175.2501 759.9929,176.0709 C766.465,189.2025 776.2785,203.999 790,212 C854.611,249.674 1408.8,198.426 1462,251 C1542.32,330.383 1507.62,485.978 1491,543.7297 " fill="none" id="TelecomandInterface-Interface" style="stroke:#A80036;stroke-width:1.0;"/><text fill="#000000" font-family="sans-serif" font-size="13" lengthAdjust="spacing" textLength="136" x="1520" y="395.0669">TelecomandInterface</text><path d="M1137.4205,232.9126 A10,10 0 0 0 1137.2792 218.7712" style="stroke:#A80036;stroke-width:1.5;fill:none;"/><ellipse cx="1130.2791" cy="225.9125" fill="#FFFFFF" rx="6" ry="6" style="stroke:#A80036;stroke-width:1.5;"/><!--MD5=[b05285bfe0ec0597933799c33895ac0d]
link Temperature to Telemetry--><path d="M54.5421,196.3297 C54.8048,197.9433 55.0701,199.5735 55.3375,201.2156 C59.6147,227.49 64.3923,256.8385 66.6624,270.783 " fill="none" id="Temperature-Telemetry" style="stroke:#A80036;stroke-width:1.0;"/><!--MD5=[9bc0c4884c240de822646a10449c5961]
link Power to Telemetry1--><path d="M1515.9641,159.7822 C1515.9053,159.8525 1515.8463,159.9231 1515.7871,159.994 C1515.6685,160.1358 1515.5489,160.2788 1515.4282,160.4229 C1514.4625,161.5764 1513.4286,162.8054 1512.3332,164.0996 C1510.1425,166.6881 1507.7063,169.5372 1505.08,172.5632 C1494.575,184.6673 1481.03,199.601 1468,212 C1443.1,235.699 1410.82,260.526 1395.23,272.187 " fill="none" id="Power-Telemetry1" style="stroke:#A80036;stroke-width:1.0;"/><!--MD5=[66f9f27f8f6c97e282367f99f4da0d8c]
link Movement to Telemetry2--><path d="M1160,196.3297 C1160,197.9433 1160,199.5735 1160,201.2156 C1160,227.49 1160,256.8385 1160,270.783 " fill="none" id="Movement-Telemetry2" style="stroke:#A80036;stroke-width:1.0;"/><!--MD5=[5abe58e480ae15b716bf0b3d69ecfff2]
link Navigation to Telemetry3--><path d="M813.542,196.3297 C813.8047,197.9433 814.0701,199.5735 814.3374,201.2156 C818.6145,227.49 823.392,256.8385 825.662,270.783 " fill="none" id="Navigation-Telemetry3" style="stroke:#A80036;stroke-width:1.0;"/><!--MD5=[85dc41547b51e7d30b4897b7218e43ee]
link MoveInterface to TelemetryInterface--><!--MD5=[ad1593bb949e63cff69f9c071fa38212]
link MoveInterface to PayloadInterface--><!--MD5=[59cc1b49149dd964b0c2bb431b30f27a]
@startuml
component "//<<Subsystem>>//\n=**EmbededSystem**" {
   component "Power" {
      [Battery]
      [SolarPanel]
   }
   component "Movement" {
      [Legs]
      [Accelerometer]
   }
   
   component "Navigation" {
      [Mapping]
      [Locations]
   }

   component "Temperature" {
      [TemperatureSensor]

   }

   component "TelecomandInterface" {
      [MoveInterface]
      [TelemetryInterface]
      [PayloadInterface]
   }

   () Telemetry
   () Telemetry1 as "Telemetry"
   () Telemetry2 as "Telemetry"
   () Telemetry3 as "Telemetry"

}

Component "//<<Subsystem>>//\n=**EarthPc**" {
   component "Interface"
}

Component Lander as "//<<Subsystem>>//\n=**Lander**" {
   
}

Component Payload as "//<<Subsystem>>//\n=**Payload**" {
   
}

TelecomandInterface - -0)- - Interface : ""TelecomandInterface""

Telemetry -up- Temperature
Telemetry1 -up- Power
Telemetry2 -up- Movement
Telemetry3 -up- Navigation

' Teleinterface -up- TelecomandInterface
' Teleinterface )- - Interface
' Teleinterface )- - Lander
' Teleinterface )- - Payload
' dummy comment a
@enduml

@startuml
component "//<<Subsystem>>//\n=**EmbededSystem**" {
   component "Power" {
      [Battery]
      [SolarPanel]
   }
   component "Movement" {
      [Legs]
      [Accelerometer]
   }
   
   component "Navigation" {
      [Mapping]
      [Locations]
   }

   component "Temperature" {
      [TemperatureSensor]

   }

   component "TelecomandInterface" {
      [MoveInterface]
      [TelemetryInterface]
      [PayloadInterface]
   }

   () Telemetry
   () Telemetry1 as "Telemetry"
   () Telemetry2 as "Telemetry"
   () Telemetry3 as "Telemetry"

}

Component "//<<Subsystem>>//\n=**EarthPc**" {
   component "Interface"
}

Component Lander as "//<<Subsystem>>//\n=**Lander**" {
   
}

Component Payload as "//<<Subsystem>>//\n=**Payload**" {
   
}

TelecomandInterface - -0)- - Interface : ""TelecomandInterface""

Telemetry -up- Temperature
Telemetry1 -up- Power
Telemetry2 -up- Movement
Telemetry3 -up- Navigation

@enduml

PlantUML version 1.2021.11beta5(Unknown compile time)
(GPL source distribution)
Java Runtime: Java(TM) SE Runtime Environment
JVM: Java HotSpot(TM) 64-Bit Server VM
Default Encoding: UTF-8
Language: en
Country: US
--></g></svg>